<?xml version="1.0" standalone="no"?>
<!DOCTYPE svg PUBLIC "-//W3C//DTD SVG 20010904//EN"
 "http://www.w3.org/TR/2001/REC-SVG-20010904/DTD/svg10.dtd">
<svg version="1.0" xmlns="http://www.w3.org/2000/svg"
 width="700.000000pt" height="700.000000pt" viewBox="0 0 700.000000 700.000000"
 preserveAspectRatio="xMidYMid meet">
<metadata>
Created by potrace 1.11, written by Peter Selinger 2001-2013
</metadata>
<g transform="translate(0.000000,700.000000) scale(0.100000,-0.100000)"
fill="#000000" stroke="none">
<path d="M2735 6986 c-44 -20 -73 -48 -90 -88 -15 -37 -19 -57 -31 -148 -4
-30 -8 -64 -9 -75 -2 -11 -6 -42 -10 -70 -3 -27 -8 -61 -10 -75 -8 -44 -14
-83 -25 -170 -6 -47 -13 -96 -15 -110 -2 -14 -9 -61 -15 -105 -6 -44 -13 -91
-15 -105 -2 -14 -7 -45 -10 -70 l-7 -45 -116 -55 c-129 -61 -288 -154 -400
-235 l-74 -53 -36 14 c-21 8 -46 19 -57 24 -11 5 -90 37 -175 70 -151 60 -435
174 -475 191 -116 48 -155 61 -191 61 -53 0 -111 -31 -141 -75 -18 -26 -178
-301 -255 -437 -113 -198 -335 -581 -349 -602 -11 -15 -19 -29 -19 -32 0 -3
-19 -38 -43 -78 -60 -102 -70 -131 -65 -183 9 -72 17 -80 273 -279 17 -13 116
-91 220 -172 105 -82 218 -171 253 -197 34 -27 60 -52 58 -55 -4 -7 -9 -43
-22 -172 -9 -84 -6 -295 6 -399 6 -57 10 -104 8 -106 -2 -1 -149 -116 -328
-255 -179 -140 -348 -272 -377 -294 -90 -70 -116 -162 -72 -249 20 -39 496
-865 651 -1129 81 -139 108 -162 190 -165 53 -1 93 13 499 177 l442 178 64
-47 c133 -95 231 -153 383 -226 148 -72 143 -69 146 -86 1 -7 5 -34 8 -59 4
-25 9 -56 11 -70 3 -14 7 -43 10 -65 2 -22 13 -105 25 -185 11 -80 23 -163 25
-185 3 -22 8 -51 11 -65 2 -14 6 -45 9 -69 2 -24 7 -51 9 -60 3 -9 8 -43 11
-76 8 -81 14 -104 42 -147 48 -77 -2 -73 838 -73 609 0 756 3 782 14 64 26 88
78 108 231 3 25 8 57 10 71 3 14 7 43 10 64 2 22 10 75 16 120 6 44 13 89 14
100 2 11 6 38 9 60 3 22 8 60 11 85 3 25 8 52 10 60 2 8 6 40 9 70 3 30 8 64
10 75 2 11 7 43 11 72 6 46 10 53 38 64 117 46 372 190 501 283 l59 43 106
-42 c58 -23 259 -104 446 -179 394 -160 409 -162 498 -92 9 7 137 220 282 472
146 253 269 466 275 474 5 8 26 44 46 80 20 36 62 108 93 160 51 87 56 99 56
157 0 47 -5 68 -21 90 -11 15 -186 159 -389 319 -202 160 -372 299 -377 308
-5 9 -7 20 -4 24 16 26 25 402 12 505 -3 23 -7 67 -11 97 l-5 55 291 225 c160
124 302 235 317 247 15 12 52 42 83 65 32 24 69 61 84 83 23 35 26 48 22 100
-3 53 -12 74 -71 175 -38 63 -82 140 -98 170 -17 30 -39 67 -49 82 -11 14 -19
28 -19 31 0 3 -21 41 -47 84 -25 43 -60 103 -76 133 -17 30 -38 66 -47 80 -9
14 -20 32 -24 40 -4 8 -12 24 -19 35 -7 11 -73 126 -147 254 -159 275 -170
286 -269 285 -61 -1 -96 -13 -500 -176 l-434 -176 -82 59 c-123 87 -245 159
-387 227 -117 57 -128 64 -129 89 0 16 -3 42 -5 58 -5 33 -20 136 -29 200 -11
71 -14 89 -20 150 -4 33 -8 62 -10 65 -2 3 -6 32 -9 65 -4 33 -9 67 -11 75 -2
8 -6 38 -10 65 -27 224 -42 282 -81 316 -57 50 -30 49 -821 48 -596 0 -744 -2
-768 -13z m970 -2191 c39 -7 90 -18 115 -24 25 -6 52 -13 60 -15 99 -25 317
-136 404 -206 232 -187 373 -381 454 -626 58 -174 64 -214 67 -409 3 -182 -9
-266 -60 -421 -112 -342 -358 -621 -685 -777 -129 -62 -262 -100 -423 -123
-70 -9 -246 -4 -337 10 -84 13 -109 19 -200 48 -409 130 -741 473 -858 888
-17 58 -33 127 -37 153 -3 27 -8 59 -11 70 -6 29 -6 235 0 267 3 14 9 57 15
97 52 349 297 704 618 897 138 82 338 156 468 171 33 3 62 8 63 10 10 9 285 2
347 -10z"/>
</g>
</svg>
